<mxfile host="app.diagrams.net" modified="2024-04-18T23:21:43.883Z" agent="Mozilla/5.0 (Windows NT 10.0; Win64; x64) AppleWebKit/537.36 (KHTML, like Gecko) Chrome/123.0.0.0 Safari/537.36" version="24.2.5" etag="VKPxtLVzBhENwlMamLDj" type="github">
  <diagram name="Page-1" id="lBoejX6tdU4zSVtt3EZM">
    <mxGraphModel>
      <root>
        <mxCell id="0" />
        <mxCell id="1" parent="0" />
      </root>
    </mxGraphModel>
  </diagram>
</mxfile>
